# xmcd
#
# Track frame offsets:
#	150
#	13676
#	29063
#	43039
#	59476
#	74157
#	89296
#	105606
#	122205
#	129759
#	146903
#	167262
#	187208
#	201035
#	218937
#	244723
#	260987
#	276944
#	295866
#	311327
#	327938
#
# Disc length: 4531 seconds
#
# Revision: 1
# Processed by: cddbd v1.5.2PL0 Copyright (c) Steve Scherf et al.
# Submitted via: audiograbber 1.83.01
#
DISCID=4f11b115
DTITLE=Kay One - Kenneth allein zu Haus (Premium Edition)
DYEAR=2010
DGENRE=Hip-Hop
TTITLE0=Intro
TTITLE1=Kenneth allein zu Haus
TTITLE2=Sexy Teens
TTITLE3=Irgendwann
TTITLE4=Style and das Geld (feat. Sonny Black)
TTITLE5=Verzeih mir (feat. Philippe Heithier)
TTITLE6=So allein
TTITLE7=Bis die Polizei kommt (feat. Frauenarzt)
TTITLE8=Tierheim Skit
TTITLE9=Ich brech die Herzen
TTITLE10=Rockstar (feat. Nyze and Benny Blanko)
TTITLE11=Bitte vergiss mich nicht (feat. Philippe Heithier)
TTITLE12=Du fehlst mir (feat. Bushido)
TTITLE13=Deine Zeit kommt (feat. Fler)
TTITLE14=Ein guter Tag
TTITLE15=Bushido
TTITLE16=Noch zu lernen
TTITLE17=Nichts ist für immer (feat. Philippe Heithier)
TTITLE18=In Liebe, dein Bruder
TTITLE19=Nie vorbei (feat. Philippe Heithier)
TTITLE20=Outro
EXTD=
EXTT0=
EXTT1=
EXTT2=
EXTT3=
EXTT4=
EXTT5=
EXTT6=
EXTT7=
EXTT8=
EXTT9=
EXTT10=
EXTT11=
EXTT12=
EXTT13=
EXTT14=
EXTT15=
EXTT16=
EXTT17=
EXTT18=
EXTT19=
EXTT20=
PLAYORDER=
